<svg viewBox="0 0 512 512" xmlns="http://www.w3.org/2000/svg" xmlns:xlink="http://www.w3.org/1999/xlink"><linearGradient id="a" gradientTransform="matrix(1 0 0 -1 0 -14446)" gradientUnits="userSpaceOnUse" x1="0" x2="512" y1="-14702" y2="-14702"><stop offset="0" stop-color="#00f1ff"/><stop offset=".231" stop-color="#00d8ff"/><stop offset=".5138" stop-color="#00c0ff"/><stop offset=".7773" stop-color="#00b2ff"/><stop offset="1" stop-color="#00adff"/></linearGradient><path d="m512 256c0 141.386719-114.613281 256-256 256s-256-114.613281-256-256 114.613281-256 256-256 256 114.613281 256 256zm0 0" fill="url(#a)"/><g fill="#fff"><path d="m377.777344 102.425781h-253.558594c-32.101562 0-58.21875 26.117188-58.21875 58.21875v166.398438c0 32.105469 26.117188 58.222656 58.21875 58.222656h94.367188c8.28125 0 15-6.71875 15-15 0-8.285156-6.71875-15-15-15h-94.367188c-15.558594 0-28.21875-12.660156-28.21875-28.222656v-162.277344l124.253906 77.265625c9.484375 5.898438 20.113282 8.84375 30.746094 8.84375 10.628906 0 21.261719-2.945312 30.742188-8.84375l124.257812-77.265625v58.550781c0 8.285156 6.714844 15 15 15s15-6.714844 15-15v-62.667968c0-32.105469-26.117188-58.222657-58.222656-58.222657zm-111.875 114.128907c-9.191406 5.71875-20.613282 5.71875-29.804688 0l-127.589844-79.335938c4.496094-3.023438 9.898438-4.792969 15.710938-4.792969h253.558594c5.8125 0 11.21875 1.769531 15.714844 4.792969zm0 0"/><path d="m388.144531 250.167969c-2.8125-2.8125-6.628906-4.394531-10.605469-4.394531h-61.46875c-3.976562 0-7.792968 1.582031-10.605468 4.394531l-43.460938 43.460937c-2.8125 2.8125-4.394531 6.628906-4.394531 10.605469v61.464844c0 4.023437 1.613281 7.875 4.480469 10.695312l29.535156 29.054688c5.902344 5.808593 15.402344 5.730469 21.210938-.171875 5.8125-5.90625 5.730468-15.402344-.171876-21.214844l-25.054687-24.648438v-48.964843l34.675781-34.675781h49.039063l34.675781 34.675781v49.074219l-24.464844 24.671874c-5.832031 5.878907-5.792968 15.378907.089844 21.210938 2.925781 2.902344 6.742188 4.351562 10.5625 4.351562 3.859375 0 7.71875-1.484374 10.652344-4.441406l28.8125-29.054687c2.785156-2.808594 4.347656-6.605469 4.347656-10.5625v-61.464844c0-3.976563-1.578125-7.792969-4.394531-10.605469zm0 0"/><path d="m346.804688 394.757812h-.007813c-7.957031 0-14.402344 6.449219-14.402344 14.40625 0 7.957032 6.453125 14.40625 14.410157 14.40625 7.957031 0 14.410156-6.449218 14.410156-14.40625 0-7.957031-6.453125-14.40625-14.410156-14.40625zm0 0"/><path d="m346.796875 296.917969c-8.28125 0-15 6.714843-15 15v54.023437c0 8.285156 6.71875 15 15 15 8.285156 0 15-6.714844 15-15v-54.023437c0-8.285157-6.714844-15-15-15zm0 0"/></g></svg>