<svg height="512pt" viewBox="0 0 512 512" width="512pt" xmlns="http://www.w3.org/2000/svg" xmlns:xlink="http://www.w3.org/1999/xlink"><linearGradient id="a" gradientUnits="userSpaceOnUse" x1="0" x2="512" y1="256" y2="256"><stop offset="0" stop-color="#00f1ff"/><stop offset=".231" stop-color="#00d8ff"/><stop offset=".5138" stop-color="#00c0ff"/><stop offset=".7773" stop-color="#00b2ff"/><stop offset="1" stop-color="#00adff"/></linearGradient><path d="m512 256c0 141.386719-114.613281 256-256 256s-256-114.613281-256-256 114.613281-256 256-256 256 114.613281 256 256zm0 0" fill="url(#a)"/><g fill="#fff"><path d="m255.339844 182.820312c6.980468 0 13.269531 3.953126 16.023437 10.074219 2.5 5.554688 7.964844 8.847657 13.6875 8.847657 2.058594 0 4.148438-.425782 6.148438-1.328126 7.554687-3.398437 10.921875-12.277343 7.523437-19.832031-7.589844-16.863281-24.617187-27.761719-43.382812-27.761719-26.144532 0-47.417969 20.902344-47.417969 46.597657v19.042969c-16.339844 6.753906-27.871094 22.855468-27.871094 41.605468v63.367188c0 8.285156 6.71875 15 15 15h120.601563c8.28125 0 15-6.714844 15-15v-63.367188c0-24.8125-20.1875-45-45-45h-47.730469v-15.648437c0-9.152344 7.8125-16.597657 17.417969-16.597657zm45.3125 77.246094v48.367188h-90.601563v-48.367188c0-8.273437 6.730469-15 15-15h60.601563c8.269531 0 15 6.726563 15 15zm0 0"/><path d="m268.320312 276.746094c0 7.164062-5.804687 12.96875-12.96875 12.96875-7.160156 0-12.96875-5.804688-12.96875-12.96875 0-7.160156 5.808594-12.964844 12.96875-12.964844 7.164063 0 12.96875 5.804688 12.96875 12.964844zm0 0"/><path d="m256 87.980469c-92.644531 0-168.019531 75.375-168.019531 168.019531s75.375 168.019531 168.019531 168.019531c30.722656 0 60.785156-8.375 86.9375-24.214843 7.085938-4.292969 9.351562-13.519532 5.058594-20.605469-4.292969-7.082031-13.515625-9.347657-20.601563-5.058594-21.464843 13.003906-46.152343 19.875-71.394531 19.875-76.101562 0-138.019531-61.914063-138.019531-138.019531 0-76.101563 61.917969-138.015625 138.019531-138.015625s138.019531 61.914062 138.019531 138.019531c0 27.210938-8.09375 53.699219-23.40625 76.601562-4.601562 6.886719-2.753906 16.203126 4.132813 20.808594 6.886718 4.601563 16.203125 2.753906 20.808594-4.132812 18.621093-27.855469 28.464843-60.109375 28.464843-93.277344 0-92.644531-75.375-168.019531-168.019531-168.019531zm0 0"/></g></svg>