<svg viewBox="0 0 512 512" xmlns="http://www.w3.org/2000/svg" xmlns:xlink="http://www.w3.org/1999/xlink"><linearGradient id="a" gradientTransform="matrix(1 0 0 -1 0 -17294)" gradientUnits="userSpaceOnUse" x1="0" x2="512" y1="-17550" y2="-17550"><stop offset="0" stop-color="#00f1ff"/><stop offset=".231" stop-color="#00d8ff"/><stop offset=".5138" stop-color="#00c0ff"/><stop offset=".7773" stop-color="#00b2ff"/><stop offset="1" stop-color="#00adff"/></linearGradient><path d="m512 256c0 141.386719-114.613281 256-256 256s-256-114.613281-256-256 114.613281-256 256-256 256 114.613281 256 256zm0 0" fill="url(#a)"/><g fill="#fff"><path d="m177.796875 306.160156c0 8.308594-6.734375 15.042969-15.042969 15.042969-8.304687 0-15.039062-6.734375-15.039062-15.042969 0-8.304687 6.734375-15.039062 15.039062-15.039062 8.308594 0 15.042969 6.734375 15.042969 15.039062zm0 0"/><path d="m219.15625 291.121094c-8.304688 0-15.039062 6.734375-15.039062 15.039062 0 8.308594 6.734374 15.042969 15.039062 15.042969 8.308594 0 15.042969-6.734375 15.042969-15.042969 0-8.304687-6.734375-15.039062-15.042969-15.039062zm0 0"/><path d="m275.558594 291.121094c-8.304688 0-15.039063 6.734375-15.039063 15.039062 0 8.308594 6.734375 15.042969 15.039063 15.042969 8.308594 0 15.042968-6.734375 15.042968-15.042969 0-8.304687-6.734374-15.039062-15.042968-15.039062zm0 0"/><path d="m325.945312 400.957031h-187.257812c-16.609375 0-30.121094-13.511719-30.121094-30.121093v-123.332032c0-16.609375 13.511719-30.121094 30.121094-30.121094h216.585938c3.429687 0 6.152343.300782 8.320312.921876 7.960938 2.28125 16.269531-2.324219 18.550781-10.289063s-2.324219-16.269531-10.289062-18.550781c-4.894531-1.402344-10.320313-2.082032-16.582031-2.082032h-18.117188v-53.085937c0-48.6875-40.464844-88.296875-90.203125-88.296875s-90.203125 39.609375-90.203125 88.296875v53.085937h-18.0625c-33.148438 0-60.121094 26.96875-60.121094 60.121094v123.332032c0 33.152343 26.972656 60.121093 60.121094 60.121093h187.257812c8.285157 0 15-6.714843 15-15 0-8.28125-6.714843-15-15-15zm-139.195312-266.660156c0-32.148437 27.007812-58.296875 60.203125-58.296875 33.199219 0 60.203125 26.148438 60.203125 58.296875v53.085937h-120.40625zm0 0"/><path d="m386.109375 400.917969c-8.308594 0-15.042969 6.734375-15.042969 15.039062 0 8.308594 6.734375 15.042969 15.042969 15.042969 8.304687 0 15.039063-6.734375 15.039063-15.042969 0-8.304687-6.734376-15.039062-15.039063-15.039062zm0 0"/><path d="m439.542969 295.039062c-.328125-29.144531-24.144531-52.761718-53.367188-52.761718-29.429687 0-53.375 23.945312-53.375 53.375 0 8.285156 6.71875 15 15 15 8.285157 0 15-6.714844 15-15 0-12.886719 10.484375-23.375 23.375-23.375 12.886719 0 23.371094 10.488281 23.371094 23.375 0 .136718.003906.273437.007813.40625-.15625 9.226562-5.699219 17.488281-14.210938 21.121094-14.683594 6.269531-24.167969 20.75-24.167969 36.890624v13.003907c0 8.285156 6.714844 15 15 15 8.285157 0 15-6.714844 15-15v-13.003907c0-4.105468 2.335938-7.757812 5.945313-9.300781 19.710937-8.414062 32.441406-27.695312 32.4375-49.121093 0-.203126-.003906-.40625-.015625-.609376zm0 0"/></g></svg>